<svg height='100px' width='100px'  fill="#d8dae2" xmlns="http://www.w3.org/2000/svg" xmlns:xlink="http://www.w3.org/1999/xlink" version="1.1" x="0px" y="0px" viewBox="0 0 100 100" style="enable-background:new 0 0 100 100;" xml:space="preserve">
<path d="M45,65h10l-5,5L45,65z M58.5,59.6c0,1.2,1,2.2,2.2,2.2s2.2-1,2.2-2.2s-1-2.2-2.2-2.2S58.5,58.4,58.5,59.6z M39.3,57.4  c-1.2,0-2.2,1-2.2,2.2s1,2.2,2.2,2.2s2.2-1,2.2-2.2S40.5,57.4,39.3,57.4z M80.5,25.4c0,0.5-0.1,1-0.2,1.6c-0.5,2.2-2,4.1-3.3,5.6  c-1,1.1-1.9,2.2-2.8,3.4c-0.6,0.8-1.2,1.5-1.9,2.3c-0.4,0.5-0.9,1-1.3,1.5c-2.3,2.7-4.7,5.5-6.5,8.5c0,0.1-0.1,0.2-0.1,0.2  c0.9,0.7,1.8,1.4,2.6,2.2c4.5,4.5,7,10.5,7,17V69c0,8.3-6.8,15.1-15.1,15.1H41.1C32.8,84.1,26,77.4,26,69v-1.4  c0-7.6,3.6-14.7,9.6-19.2c0-0.1-0.1-0.1-0.1-0.2c0,0-0.1-0.1-0.1-0.1c-1.7-3-4.1-5.8-6.5-8.5c-0.4-0.5-0.9-1-1.3-1.5  c-0.6-0.7-1.3-1.5-1.9-2.2c-0.9-1.1-1.9-2.3-2.8-3.4c-1.3-1.5-2.8-3.4-3.3-5.6c-0.1-0.6-0.2-1.1-0.2-1.6c0-2.6,1.2-5.2,3.4-6.9  c2.6-2.1,6.1-2.3,9.6-0.6c7.6,3.5,11.3,20.7,12.4,26.3c3.3-0.7,6.8-0.7,10.1,0c1.1-5.7,4.8-22.8,12.4-26.3c3.6-1.7,7.1-1.4,9.6,0.6  C79.3,20.3,80.5,22.8,80.5,25.4z M77.5,25.4c0-1.7-0.8-3.4-2.3-4.5c-2.3-1.9-5.3-0.8-6.5-0.3c-6.1,2.8-10,19.5-11,25.7  c-0.1,0.4-0.3,0.8-0.7,1c-0.4,0.2-0.8,0.3-1.2,0.2c-3.8-1.1-7.9-1.1-11.7,0c-0.4,0.1-0.9,0.1-1.2-0.2s-0.6-0.6-0.7-1  c-1-6.2-4.9-22.9-11-25.7c-1.2-0.5-4.2-1.6-6.5,0.3c-1.5,1.2-2.3,2.9-2.3,4.5c0,0.3,0,0.6,0.1,1c0.4,1.5,1.6,3,2.7,4.3  c1,1.1,1.9,2.3,2.9,3.4c0.6,0.7,1.2,1.5,1.9,2.2c0.4,0.5,0.8,1,1.3,1.5c2.4,2.8,4.9,5.7,6.8,9c0,0,0.1,0.1,0.1,0.1  c0.8,1.5,1,1.9,0.8,2.5c-0.1,0.3-0.3,0.6-0.6,0.8C32.5,54.1,29,60.7,29,67.7V69c0,6.7,5.4,12.1,12.1,12.1h17.8  C65.6,81.1,71,75.7,71,69v-1.4c0-5.6-2.2-10.9-6.1-14.8c-1-1-2.1-1.9-3.2-2.7c-0.6-0.4-0.9-1.3-0.5-1.9c0-0.1,0.1-0.1,0.1-0.2  c0.1-0.3,0.4-0.7,0.6-1.2c2-3.3,4.4-6.2,6.9-9c0.4-0.5,0.8-1,1.3-1.5c0.6-0.7,1.2-1.5,1.9-2.2c0.9-1.1,1.9-2.3,2.9-3.4  c1.1-1.3,2.3-2.8,2.7-4.3C77.5,26,77.5,25.7,77.5,25.4C77.5,25.4,77.5,25.4,77.5,25.4z"></path></svg>