<svg height='100px' width='100px'  fill="#000000" xmlns="http://www.w3.org/2000/svg" xmlns:xlink="http://www.w3.org/1999/xlink" version="1.1" x="0px" y="0px" viewBox="0 0 110.8 95" enable-background="new 0 0 110.8 95" xml:space="preserve"><polygon points="15.8,92.8 15.8,92.8 15.8,92.8 "></polygon><path d="M23.4,54.7c-1.7,0-3.1,1.4-3.1,3.1s1.4,3.1,3.1,3.1s3.1-1.4,3.1-3.1C26.5,56.1,25.1,54.7,23.4,54.7z"></path><path d="M36.5,54.7c-1.7,0-3.1,1.4-3.1,3.1c0,1.7,1.4,3.1,3.1,3.1c1.7,0,3.1-1.4,3.1-3.1C39.6,56.1,38.2,54.7,36.5,54.7z"></path><path d="M104.4,34.9L104.4,34.9L104.4,34.9l0-0.1c0,0,0,0,0,0c0-3.3-1-6.5-2.7-9.3l0,0c-1.7-2.9-4.1-5.4-7-7.5l0,0  c-5.8-4.2-13.7-6.6-22.4-6.6c-1.4,0-2.7,0.1-4,0.2h0c-5.8,0.5-11.1,2.2-15.6,4.7l0,0c-4.4,2.5-8,5.9-10.2,9.9l0,0  c-1.2,2.2-1.9,4.5-2.2,7c-1.2-0.1-2.5-0.2-3.8-0.2c-8.7,0-16.6,2.5-22.4,6.6l0,0c-2.9,2.1-5.3,4.6-7,7.5l0,0  c-1.7,2.8-2.7,6.1-2.7,9.4l0,0v0v0v0v0v0v0v0c0,3.1,0.8,6.1,2.3,8.8c1.5,2.7,3.6,5.1,6.1,7.1c1.6,1.3,2.6,3.3,2.6,5.3l0,0  c0,0,0,0,0,0c0,0.3,0,0.6-0.1,0.8l0,0.1l-0.1,2.6c0,0.1,0,0.2,0,0.3c0.1,0.5,0.4,0.9,0.8,1.3c0,0,0,0,0,0l0,0l0,0c0,0,0,0,0,0  c0,0,0,0,0,0c0.5,0.5,1.3,0.9,2.1,0.9h0c0.5,0,0.9-0.1,1.3-0.3c1.6-0.8,4.5-2.2,6.6-3.2c0.9-0.4,1.9-0.7,2.9-0.7c0.3,0,0.7,0,1,0.1  c2.1,0.3,4.3,0.5,6.5,0.5c8.7,0,16.6-2.5,22.4-6.6l0,0c2.9-2.1,5.3-4.6,7-7.5c1.4-2.4,2.3-5,2.6-7.7c1.2,0.1,2.5,0.2,3.8,0.2  c2.2,0,4.4-0.2,6.5-0.5c0.3-0.1,0.7-0.1,1-0.1c1,0,2,0.2,2.9,0.7c2.1,1,5,2.4,6.6,3.2l0,0c0.4,0.2,0.9,0.3,1.3,0.3  c0.8,0,1.6-0.3,2.1-0.9c0,0,0,0,0,0c0,0,0,0,0,0l0,0c0,0,0,0,0,0c0.3-0.3,0.5-0.6,0.6-1c0.1,0,0.1-0.1,0.1-0.1  c0.2-0.2,0.2-0.4,0.2-0.7l-0.3-2.5c0-0.3-0.1-0.6-0.1-0.8c0-2,0.9-4,2.6-5.3c2.6-2,4.6-4.4,6.1-7.1l0,0  C103.6,41,104.4,38,104.4,34.9L104.4,34.9L104.4,34.9z M65.2,56.5c0,2.7-0.8,5.3-2.2,7.7l0,0c-1.4,2.4-3.5,4.6-6.1,6.4  c-5.2,3.7-12.4,6-20.4,6c-2,0-4-0.2-6-0.4c-0.5-0.1-1-0.1-1.6-0.1c-1.5,0-3,0.3-4.4,1c-1.9,0.9-4.3,2.1-5.9,2.9l0-0.1c0,0,0,0,0,0  l0.1-0.8l0,0c0.1-0.4,0.1-0.9,0.1-1.3c0-3.1-1.4-6-3.9-8c-2.2-1.8-4-3.9-5.2-6.1c-1.2-2.2-1.8-4.5-1.9-6.9c0-0.1,0-0.1,0-0.2l0-0.1  c0-2.7,0.8-5.3,2.2-7.6l0,0c1.4-2.4,3.5-4.6,6.1-6.4c5.2-3.7,12.4-6,20.4-6c1.3,0,2.5,0.1,3.7,0.2c5.3,0.5,10.2,2,14.2,4.3  c4,2.2,7.1,5.2,8.9,8.6l0,0C64.5,51.6,65.1,54,65.2,56.5L65.2,56.5L65.2,56.5L65.2,56.5z M56.1,37.8L56.1,37.8  c-3.6-2-7.8-3.5-12.4-4.3c0.2-2,0.8-4,1.8-5.8c1.8-3.3,4.9-6.3,8.9-8.6c4-2.2,8.9-3.8,14.2-4.3c1.2-0.1,2.4-0.2,3.7-0.2  c8,0,15.2,2.3,20.4,6c2.6,1.8,4.7,4,6.1,6.4l0,0c1.4,2.4,2.2,5,2.2,7.7l0,0v0c0,2.5-0.7,4.9-1.9,7.1l0,0c-1.2,2.2-3,4.3-5.2,6.1  c-2.4,2-3.9,4.9-3.9,8c0,0.4,0,0.9,0.1,1.3l0.1,0.9c0,0,0,0,0,0l0,0c-1.6-0.8-4.1-2-5.9-2.9c-1.4-0.7-2.9-1-4.4-1  c-0.5,0-1,0-1.6,0.1c-1.9,0.3-3.9,0.4-6,0.4c-1.3,0-2.5-0.1-3.8-0.2c-0.2-2.5-1-4.9-2.2-7.1C64.1,43.7,60.5,40.3,56.1,37.8z   M90.8,58.7C90.8,58.7,90.8,58.7,90.8,58.7L90.8,58.7L90.8,58.7z"></path><path d="M49.6,54.7c-1.7,0-3.1,1.4-3.1,3.1c0,1.7,1.4,3.1,3.1,3.1c1.7,0,3.1-1.4,3.1-3.1h0C52.7,56.1,51.3,54.7,49.6,54.7z"></path></svg>