<?xml version="1.0"?>
<svg xmlns="http://www.w3.org/2000/svg" id="Capa_1" enable-background="new 0 0 512 512" height="512px" viewBox="0 0 512 512" width="512px" class=""><g><g><path d="m437.02 74.98c-48.353-48.351-112.64-74.98-181.02-74.98s-132.667 26.629-181.02 74.98c-48.351 48.353-74.98 112.64-74.98 181.02s26.629 132.667 74.98 181.02c48.353 48.351 112.64 74.98 181.02 74.98s132.667-26.629 181.02-74.98c48.351-48.353 74.98-112.64 74.98-181.02s-26.629-132.667-74.98-181.02zm-181.02 407.02c-124.617 0-226-101.383-226-226s101.383-226 226-226 226 101.383 226 226-101.383 226-226 226z" data-original="#000000" class="active-path" data-old_color="#000000" fill="#CACACA"/><path d="m406 141h-60c-8.284 0-15 6.716-15 15v67.974l-95.397-79.498c-4.471-3.727-10.694-4.527-15.965-2.061-5.271 2.47-8.638 7.765-8.638 13.585v67.974l-95.397-79.498c-4.471-3.727-10.695-4.527-15.965-2.061-5.271 2.47-8.638 7.765-8.638 13.585v200c0 5.82 3.367 11.115 8.638 13.584 2.03.951 4.202 1.416 6.36 1.416 3.445 0 6.856-1.186 9.605-3.477l95.397-79.497v67.974c0 5.82 3.367 11.115 8.638 13.584 2.03.951 4.202 1.416 6.36 1.416 3.445 0 6.856-1.186 9.605-3.477l95.397-79.497v67.974c0 8.284 6.716 15 15 15h60c8.284 0 15-6.716 15-15v-200c0-8.284-6.716-15-15-15zm-285 182.975v-135.95l81.569 67.975zm120 0v-135.95l81.569 67.975zm150 17.025h-30v-170h30z" data-original="#000000" class="active-path" data-old_color="#000000" fill="#CACACA"/></g></g> </svg>
